<svg xmlns="http://www.w3.org/2000/svg" xmlns:xlink="http://www.w3.org/1999/xlink" viewBox="0 0 83.55 59.66"><defs><style>.cls-1{fill:none;}.cls-2{clip-path:url(#clip-path);}.cls-3{fill:#a72126;}.cls-4{fill:#231815;}</style><clipPath id="clip-path" transform="translate(0 0)"><rect class="cls-1" width="83.54" height="59.66"/></clipPath></defs><title>headerlogo</title><g id="レイヤー_2" data-name="レイヤー 2"><g id="レイヤー_1-2" data-name="レイヤー 1"><g class="cls-2"><path class="cls-3" d="M41.77,41.77A20.89,20.89,0,1,1,62.66,20.89,20.91,20.91,0,0,1,41.77,41.77m0-41.14A20.26,20.26,0,1,0,62,20.89,20.28,20.28,0,0,0,41.77.63" transform="translate(0 0)"/><path class="cls-3" d="M41.77,40a19.11,19.11,0,1,1,19.11-19.1A19.12,19.12,0,0,1,41.77,40m0-37.58A18.48,18.48,0,1,0,60.25,20.89,18.5,18.5,0,0,0,41.77,2.41" transform="translate(0 0)"/><path class="cls-3" d="M43.22,35.8a1.8,1.8,0,0,1-1.83-.6,1.54,1.54,0,0,1-.13-1.6,2.23,2.23,0,0,1,2.17-1V32a2.87,2.87,0,0,0-2.74,1.34,2.19,2.19,0,0,0,.19,2.26,2.28,2.28,0,0,0,1.89.9,3.51,3.51,0,0,0,.55,0c1.85-.32,3.29-2.16,4.29-5.47a3.86,3.86,0,0,1-.57-.3c-.92,3.12-2.23,4.88-3.83,5.15" transform="translate(0 0)"/><path class="cls-3" d="M51.14,22.64c-1.85.32-3.29,2.16-4.29,5.47a4.47,4.47,0,0,0,.55.35c.93-3.1,2.25-4.93,3.85-5.2a1.8,1.8,0,0,1,1.83.61,1.52,1.52,0,0,1,.13,1.59,2.24,2.24,0,0,1-2.17,1v.62h0a2.86,2.86,0,0,0,2.69-1.34,2.17,2.17,0,0,0-.19-2.25,2.4,2.4,0,0,0-2.44-.86" transform="translate(0 0)"/><path class="cls-3" d="M43.24,10.94a6.71,6.71,0,0,1,3.23-.88,5.74,5.74,0,0,1,1.82.29A4.08,4.08,0,0,1,47,13a3.52,3.52,0,0,1-.94.65,1.71,1.71,0,0,0,.23-.87,1.8,1.8,0,1,0-1.84,1.8h0a4,4,0,0,0,3-1.14,4.71,4.71,0,0,0,1.41-2.81A5.25,5.25,0,0,1,52,15.32a5.43,5.43,0,0,1-5.57,5.26,5.13,5.13,0,0,1-.95-.11,1.75,1.75,0,0,0,.81-1.5,1.8,1.8,0,1,0-3.6,0,1.83,1.83,0,0,0,1.14,1.68h0a7,7,0,0,0,2.57.56,6,6,0,0,0,6.2-5.89,5.88,5.88,0,0,0-3.74-5.4A4.5,4.5,0,0,0,44.5,5.4c-3.81.08-5.73,3-5.86,8.94,0,.54,0,1.07,0,1.57v.2c-.21.57-.42,1.19-.62,1.88-1,2.93-1.67,4-3,4.72A3.34,3.34,0,0,1,33.1,23a3.29,3.29,0,0,1-1-.28,2.76,2.76,0,0,1-.29.57,4.71,4.71,0,0,0,1.16.33,4,4,0,0,0,.5,0,4,4,0,0,0,1.72-.41c1.55-.77,2.37-2,3.37-5.07a12.42,12.42,0,0,1-2.09,7,4.6,4.6,0,0,1-4,2.09,4.21,4.21,0,0,1-4.47-3.89,3.65,3.65,0,0,1,.08-.74,1.81,1.81,0,1,0,.45-2.11.82.82,0,0,0-.11.1,4,4,0,0,0-1,2.75A4.84,4.84,0,0,0,32.53,28,5.21,5.21,0,0,0,37,25.56c2.12-3.19,2.2-5.8,2.22-9.34,1.15-3.07,2.31-4.26,4-5.28m1.29,3a1.18,1.18,0,1,1,1.18-1.18,1.18,1.18,0,0,1-1.18,1.18m0,6.24A1.18,1.18,0,1,1,45.71,19a1.18,1.18,0,0,1-1.18,1.18m-15.6,1,0,0a1.17,1.17,0,1,1-.36.84,1.14,1.14,0,0,1,.33-.81m10.34-6.77c.18-8.22,4-8.3,5.24-8.32a3.86,3.86,0,0,1,3.78,3.66,6.35,6.35,0,0,0-1.82-.26,7.38,7.38,0,0,0-3.55,1,8.79,8.79,0,0,0-3.66,4.17v-.22" transform="translate(0 0)"/><path class="cls-3" d="M27.92,20.12a2.15,2.15,0,0,1,.52-.35,1.14,1.14,0,0,1-.09-.16,6,6,0,0,1-.52-2.43,5.73,5.73,0,0,1,5.67-5.79,5,5,0,0,1,1.2.13,1.78,1.78,0,1,0,2,.17h0a5.8,5.8,0,0,0-3.23-.93,6.36,6.36,0,0,0-6.29,6.42,6.54,6.54,0,0,0,.58,2.69c0,.05.12.21.14.25m7.65-8.21a1.18,1.18,0,1,1-1.17,1.18,1.17,1.17,0,0,1,1.17-1.18" transform="translate(0 0)"/><path class="cls-3" d="M40.43,19.07l-.6.27A15.25,15.25,0,0,0,54.81,32v-.62A14.61,14.61,0,0,1,40.43,19.07" transform="translate(0 0)"/><path class="cls-4" d="M4.31,55.3c-.77-.44-1.74-.83-2.36-1.23a1.27,1.27,0,0,1-.76-1.17A.93.93,0,0,1,2.12,52h3V50.91H2.23a2.52,2.52,0,0,0-1.12.24A2,2,0,0,0,0,53c0,.68.2,1.4,1.63,2.19.54.3,1.05.53,1.73.87s1,.63,1,1.4a1,1,0,0,1-1.08,1H0v1.09H3.33a2.07,2.07,0,0,0,2.2-2.13A2.14,2.14,0,0,0,4.31,55.3" transform="translate(0 0)"/><path class="cls-4" d="M11.45,50.84a4.39,4.39,0,1,0,4.45,4.39,4.42,4.42,0,0,0-4.45-4.39m0,7.75a3.36,3.36,0,1,1,3.28-3.36,3.33,3.33,0,0,1-3.28,3.36" transform="translate(0 0)"/><path class="cls-4" d="M20.89,50.93a2.7,2.7,0,0,0-2.76,2,2.83,2.83,0,0,0-.09.68v6h1.13v-6A1.63,1.63,0,0,1,20.87,52a1.52,1.52,0,0,1,1.58,1.77c0,.5-.28,1.34-.95,1.52a1.35,1.35,0,0,1-.41.06h-1.2v1.07h1.54a1.86,1.86,0,0,0,.58-.1,1.78,1.78,0,0,0,.65-.42,3,3,0,0,0,.91-2.17,2.55,2.55,0,0,0-2.68-2.75" transform="translate(0 0)"/><rect class="cls-4" x="35.06" y="50.91" width="1.13" height="8.65"/><polygon class="cls-4" points="30.68 54.57 26.9 54.57 26.9 50.91 25.77 50.91 25.77 59.56 26.9 59.56 26.9 55.65 30.68 55.65 30.68 59.56 31.82 59.56 31.82 50.91 30.68 50.91 30.68 54.57"/><path class="cls-4" d="M43.66,55.3c-.78-.44-1.74-.83-2.36-1.23a1.25,1.25,0,0,1-.76-1.17.93.93,0,0,1,.93-.91h3V50.91H41.58a2.53,2.53,0,0,0-1.13.24A2,2,0,0,0,39.39,53c0,.68.19,1.4,1.62,2.19.55.3,1.06.53,1.74.87s1,.63,1,1.4a1,1,0,0,1-1.08,1H39.35v1.09h3.33a2.07,2.07,0,0,0,2.2-2.13,2.14,2.14,0,0,0-1.22-2.12" transform="translate(0 0)"/><path class="cls-4" d="M73.56,57.79a3.31,3.31,0,0,1-1.16-2.52A3.16,3.16,0,0,1,73,53.4,3.27,3.27,0,0,1,75.63,52h1V50.91h-1a4.35,4.35,0,0,0-1.87,8.3,3.4,3.4,0,0,0,1.36.31h1.5V58.44H75.13a2.72,2.72,0,0,1-1.57-.65" transform="translate(0 0)"/><path class="cls-4" d="M67.66,57.89l-3-6.06c-.31-.61-.56-.89-1.14-.89a.88.88,0,0,0-.95,1v7.64h1.13V52.44l3.39,6.79a.78.78,0,0,0,.79.43.83.83,0,0,0,.92-.82V51H67.66Z" transform="translate(0 0)"/><polygon class="cls-4" points="46.6 50.91 46.6 52.05 48.73 52.05 48.73 59.56 49.87 59.56 49.87 52.05 52 52.05 52 50.91 46.6 50.91"/><path class="cls-4" d="M56.7,50.88h0a2.94,2.94,0,0,0-2.9,2.89v5.78h1.13V53.73a1.77,1.77,0,1,1,3.54,0v.83H55.64v1.08h2.83v3.91H59.6V53.77a3,3,0,0,0-2.9-2.89" transform="translate(0 0)"/><path class="cls-4" d="M83.55,54.49H79.43a3,3,0,0,1,.48-1.09A3.27,3.27,0,0,1,82.57,52h1V50.91h-1a4.38,4.38,0,0,0-4.41,4.35,4.42,4.42,0,0,0,2.54,4,3.39,3.39,0,0,0,1.35.31h1.51V58.44H82.08a2.75,2.75,0,0,1-1.58-.65,3.36,3.36,0,0,1-1.14-2.22h4.19Z" transform="translate(0 0)"/></g></g></g></svg>